<svg width="33" height="33" viewBox="0 0 33 33" fill="none" xmlns="http://www.w3.org/2000/svg"><path d="M16.498 6.662c3.205 0 3.581.015 4.848.072 1.172.052 1.805.247 2.23.414.561.22.961.476 1.38.896.42.419.682.819.896 1.38.162.425.362 1.058.414 2.23.057 1.267.072 1.643.072 4.848 0 3.206-.015 3.582-.072 4.849-.052 1.172-.247 1.805-.414 2.229a3.726 3.726 0 0 1-.896 1.381c-.419.42-.819.681-1.38.896-.425.162-1.058.362-2.23.414-1.267.057-1.643.071-4.848.071-3.206 0-3.582-.014-4.849-.071-1.172-.052-1.805-.248-2.229-.414a3.724 3.724 0 0 1-1.381-.896c-.42-.419-.681-.82-.896-1.381-.162-.424-.362-1.057-.414-2.229-.057-1.267-.071-1.643-.071-4.849 0-3.205.014-3.581.071-4.848.052-1.172.248-1.805.414-2.23.22-.561.477-.961.896-1.38.419-.42.819-.682 1.381-.896.424-.162 1.057-.362 2.229-.414 1.267-.062 1.643-.072 4.849-.072zm0-2.162c-3.258 0-3.668.014-4.949.071-1.276.058-2.148.262-2.91.558-.79.305-1.458.719-2.124 1.386a5.951 5.951 0 0 0-1.386 2.124c-.296.762-.5 1.634-.558 2.915-.057 1.276-.071 1.686-.071 4.944 0 3.257.014 3.667.071 4.948.058 1.277.262 2.148.558 2.915.305.79.719 1.458 1.386 2.124a5.95 5.95 0 0 0 2.124 1.386c.762.296 1.634.5 2.915.558 1.281.057 1.686.071 4.948.071 3.263 0 3.668-.014 4.949-.072 1.276-.057 2.148-.261 2.915-.557a5.848 5.848 0 0 0 2.124-1.386 5.95 5.95 0 0 0 1.386-2.124c.295-.762.5-1.634.557-2.915.057-1.281.072-1.686.072-4.948 0-3.263-.015-3.668-.072-4.949-.057-1.276-.262-2.148-.557-2.915A5.849 5.849 0 0 0 26.49 6.51a5.953 5.953 0 0 0-2.124-1.386c-.762-.295-1.634-.5-2.915-.557-1.286-.053-1.696-.067-4.953-.067z" fill="#8D8E8E"/><path d="M16.497 10.335a6.164 6.164 0 0 0 0 12.326c3.401 0 6.164-2.763 6.164-6.163 0-3.401-2.763-6.164-6.164-6.164zm0 10.163a4 4 0 1 1 0-8 4 4 0 0 1 0 8zM22.904 11.53a1.438 1.438 0 1 0 0-2.877 1.438 1.438 0 0 0 0 2.877z" fill="#8D8E8E"/></svg>