<svg width="33" height="33" viewBox="0 0 33 33" fill="none" xmlns="http://www.w3.org/2000/svg"><path d="M16.207 23.931h1.615s.484-.056.738-.311c.23-.24.221-.687.221-.687s-.033-2.109.976-2.42c.992-.304 2.263 2.037 3.607 2.94 1.017.678 1.796.534 1.796.534l3.607-.048s1.886-.111.993-1.557c-.074-.12-.525-1.07-2.681-3.02-2.263-2.044-1.96-1.708.762-5.247 1.656-2.156 2.32-3.466 2.115-4.033-.197-.535-1.418-.391-1.418-.391l-4.059.023s-.303-.04-.524.088c-.222.128-.361.424-.361.424s-.64 1.669-1.5 3.083c-1.804 2.987-2.534 3.147-2.83 2.963-.688-.431-.516-1.741-.516-2.668 0-2.9.451-4.105-.877-4.417-.443-.103-.762-.175-1.894-.183-1.451-.016-2.673.008-3.37.335-.459.224-.82.71-.598.743.27.032.877.16 1.197.583.418.551.402 1.789.402 1.789s.237 3.41-.558 3.834c-.55.287-1.295-.304-2.91-3.011a25.73 25.73 0 0 1-1.444-2.94s-.123-.287-.336-.439c-.262-.184-.623-.247-.623-.247l-3.853.024s-.583.016-.796.263c-.188.216-.016.671-.016.671s3.025 6.877 6.444 10.351c3.132 3.18 6.69 2.971 6.69 2.971z" fill="#8D8E8E"/></svg>